<?xml version="1.0" encoding="utf-8"?>
<!-- Generator: Adobe Illustrator 24.2.0, SVG Export Plug-In . SVG Version: 6.00 Build 0)  -->
<svg version="1.1" id="Layer_1" xmlns="http://www.w3.org/2000/svg" xmlns:xlink="http://www.w3.org/1999/xlink" x="0px" y="0px"
	 viewBox="0 0 186.3 50.2" style="enable-background:new 0 0 186.3 50.2;" xml:space="preserve">
<style type="text/css">
	.st0{fill:none;}
</style>
<g>
	<path d="M110.3,25.8h6.9l-4.9-15.7l-5,15.7l0,0l-5.5,17.3l6.6,0.6v6.4H87.1v-6.4L93,43l14.9-42.9h10.3L132.8,43l5.4,0.7v6.4h-22
		v-6.4l6.4-0.6L119.5,33H108L110.3,25.8z"/>
	<g>
		<path class="st0" d="M23.2,42.9c5.5,0,8-2.3,8-7.3c0-4.7-3.1-7-9.4-7H19v14.3H23.2z"/>
		<path class="st0" d="M21.2,21.2c5.2,0,7.9-2.5,7.9-7.4c0-4.4-2.7-6.6-7.9-6.6h-2.1v14H21.2z"/>
		<polygon points="0,0.1 0,6.5 7,7.2 7,43 0.7,43.7 0.7,50.1 16,50.1 16,0.1 		"/>
		<path d="M31.7,23.4c4.8-2.4,6.6-6.9,6.6-10.8c0-7.7-6-12.4-15.6-12.4h-3.6v7.1h2.1c5.2,0,7.9,2.2,7.9,6.6c0,4.9-2.7,7.4-7.9,7.4
			h-2.1v7.5h2.8c6.3,0,9.4,2.3,9.4,7c0,5-2.6,7.3-8,7.3h-4.1v7.1h4.9c10.8,0,17.2-5.4,17.2-14.5C41.2,29.5,37.7,25.1,31.7,23.4z"/>
	</g>
	<g>
		<polygon points="77.4,28.4 79.1,21 63.7,21 63.7,28.4 		"/>
		<polygon points="44.8,0.1 44.8,6.5 51.5,7.1 51.5,43 44.5,43.7 44.5,50.1 60.6,50.1 60.6,0.1 		"/>
		<polygon points="75.2,7.2 76.2,16.2 83.3,16.2 83.3,0.1 63.7,0.1 63.7,7.2 		"/>
		<polygon points="86.8,34.3 79.6,34.3 77.5,42.8 63.7,42.8 63.7,50.1 84.3,50.1 		"/>
	</g>
	<g>
		<path class="st0" d="M156.1,7.4v16.1l0,0V7.4L156.1,7.4z"/>
		<path class="st0" d="M159.7,23.6c6.6,0,10-2.8,10-8.4c0-6.5-5.3-7.8-9.8-7.8h-0.7v16.2C159.4,23.6,159.5,23.6,159.7,23.6z"/>
		<path d="M156.1,23.5V7.4l0,0V0.1h-16.2v6.4l7,0.6V43l-7,0.6V50h23.2v-6.3l-7.1-0.6V30.8l0,0L156.1,23.5L156.1,23.5z"/>
		<path d="M185.2,43.5c-2.2-0.1-3.9-0.5-7.3-5c-1.6-2.1-4.3-5.6-7.9-10.7c6-2.3,9.5-7.4,9.5-14.1c0-8.6-6.3-13.7-16.9-13.7h-3.3v7.3
			h0.7c4.5,0,9.8,1.4,9.8,7.8c0,5.6-3.4,8.4-10,8.4c-0.2,0-0.3,0-0.5,0v7.4c0.7,0,1.5,0,2.3,0c1.2,1.7,2.2,3.2,3.2,4.6
			c1.8,2.6,3.4,4.9,5,7.1c4.1,5.6,6.2,7.3,11.4,7.3h5.1v-6.5L185.2,43.5z"/>
	</g>
</g>
</svg>
